<?xml version="1.0" encoding="utf-8"?>
<!-- Generator: Adobe Illustrator 19.2.1, SVG Export Plug-In . SVG Version: 6.00 Build 0)  -->
<svg version="1.1" id="Слой_1" xmlns="http://www.w3.org/2000/svg" xmlns:xlink="http://www.w3.org/1999/xlink" x="0px" y="0px"
	 width="22px" height="20.002px" viewBox="0 0 22 20.002" style="enable-background:new 0 0 22 20.002;" xml:space="preserve">
<style type="text/css">
	.st0{fill:#FFFFFF;}
</style>
<path class="st0" d="M13.358,20.002c-2.243,0.026-4.418-0.769-6.115-2.236c-1.586-1.348-2.509-3.318-2.527-5.4
	c0.018-2.081,0.94-4.052,2.526-5.4C8.94,5.5,11.115,4.705,13.358,4.732C18.124,4.733,22,8.158,22,12.368
	c-0.007,1.787-0.697,3.505-1.929,4.8c0.253,0.725,0.734,1.349,1.37,1.78c0.088,0.062,0.128,0.173,0.1,0.277
	c-0.023,0.09-0.099,0.157-0.191,0.167c-0.254,0.031-0.51,0.047-0.766,0.047c-0.888,0.018-1.764-0.21-2.532-0.657
	C16.62,19.59,15.002,20.011,13.358,20.002z M12.731,14.546c-0.191,0.005-0.345,0.16-0.349,0.351v0.562
	c0.004,0.191,0.158,0.346,0.349,0.351h0.859c0.191-0.005,0.345-0.16,0.349-0.351v-0.562c-0.004-0.191-0.158-0.346-0.349-0.351
	H12.731z M13.331,10.146c0.22-0.017,0.434,0.07,0.581,0.234c0.144,0.178,0.218,0.403,0.209,0.632
	c-0.001,0.232-0.065,0.459-0.186,0.656c-0.119,0.202-0.287,0.372-0.488,0.493c-0.322,0.197-0.606,0.45-0.837,0.749
	c-0.13,0.211-0.203,0.452-0.209,0.7c-0.011,0.062,0.007,0.126,0.048,0.174c0.046,0.053,0.113,0.084,0.184,0.083h1.069
	c0.121,0.003,0.223-0.089,0.233-0.21c0.014-0.137,0.045-0.271,0.092-0.4c0.098-0.168,0.233-0.313,0.394-0.422
	c0.355-0.178,0.659-0.444,0.884-0.772c0.229-0.314,0.359-0.69,0.373-1.079c0.026-0.569-0.204-1.119-0.627-1.5
	c-0.481-0.399-1.095-0.6-1.719-0.562c-0.59-0.027-1.171,0.147-1.649,0.493c-0.373,0.295-0.593,0.742-0.6,1.217
	c-0.009,0.055,0.007,0.111,0.044,0.152c0.041,0.05,0.101,0.08,0.165,0.082l1,0.024c0.162,0.006,0.307-0.101,0.349-0.258
	c0.034-0.115,0.098-0.218,0.186-0.3c0.141-0.124,0.322-0.191,0.509-0.19L13.331,10.146z M1.214,12.16
	c-0.227,0-0.454-0.017-0.679-0.05c-0.082-0.007-0.15-0.068-0.166-0.149c-0.014-0.081,0.027-0.162,0.1-0.2
	c0.507-0.374,0.893-0.888,1.111-1.479C0.572,9.21,0.007,7.796,0,6.325c0-3.487,3.2-6.323,7.132-6.323
	c2.49-0.051,4.835,1.166,6.226,3.232h-0.007C10.848,3.218,8.418,4.08,6.484,5.67C4.66,7.145,3.498,9.285,3.252,11.618
	C2.636,11.984,1.931,12.172,1.214,12.16z"/>
</svg>
