<?xml version="1.0" encoding="utf-8"?>
<!-- Generator: Adobe Illustrator 19.2.1, SVG Export Plug-In . SVG Version: 6.00 Build 0)  -->
<svg version="1.1" id="Слой_1" xmlns="http://www.w3.org/2000/svg" xmlns:xlink="http://www.w3.org/1999/xlink" x="0px" y="0px"
	 width="22.448px" height="16.122px" viewBox="0 0 22.448 16.122" style="enable-background:new 0 0 22.448 16.122;"
	 xml:space="preserve">
<style type="text/css">
	.st0{fill:#FFFFFF;}
	.st1{clip-path:url(#SVGID_2_);}
</style>
<g id="Layer_2" transform="translate(244.25 35)">
	<g id="LOGO_ICON">
		<g id="logo_icon-2">
			<path id="Path_1" class="st0" d="M-234.086-31.16c0.001-0.015-0.005-0.029-0.015-0.039c-0.279-0.382-2.836-3.801-5.468-3.801
				c-2.203,0-3.989,1.786-3.989,3.989c0,2.203,1.786,3.988,3.989,3.989c2.643,0,5.214-3.725,5.473-4.106
				C-234.089-31.137-234.085-31.148-234.086-31.16L-234.086-31.16z"/>
			<path id="Path_2" class="st0" d="M-226.55-35c-3.293,0-6.57,4.687-6.57,4.687c-0.1,0.155-3.25,4.888-6.49,4.888
				c-2.142-0.001-4.014-1.449-4.554-3.522c-0.007-0.016-0.023-0.027-0.041-0.028c-0.023,0-0.042,0.017-0.045,0.039
				c0.662,6.181,6.209,10.655,12.391,9.993c5.72-0.613,10.058-5.44,10.057-11.193C-221.802-30.2-221.707-35-226.55-35z"/>
			<g>
				<defs>
					<path id="SVGID_1_" d="M-226.55-35c-3.293,0-6.57,4.687-6.57,4.687c-0.1,0.155-3.25,4.888-6.49,4.888
						c-2.142-0.001-4.014-1.449-4.554-3.522c-0.007-0.016-0.023-0.027-0.041-0.028c-0.023,0-0.042,0.017-0.045,0.039
						c0.662,6.181,6.209,10.655,12.391,9.993c5.72-0.613,10.058-5.44,10.057-11.193C-221.802-30.2-221.707-35-226.55-35z"/>
				</defs>
				<clipPath id="SVGID_2_">
					<use xlink:href="#SVGID_1_"  style="overflow:visible;"/>
				</clipPath>
				<g id="Group_2" class="st1">
					<path id="Path_3" class="st0" d="M-238.201-34.996l-6.049,6.047v-6.047H-238.201z"/>
					<path id="Path_4" class="st0" d="M-237.95-34.996l-6.3,6.302v-0.255l6.049-6.047H-237.95z"/>
					<path id="Path_5" class="st0" d="M-237.693-34.996l-6.557,6.555v-0.253l6.3-6.302H-237.693z"/>
					<path id="Path_6" class="st0" d="M-237.44-34.996l-6.81,6.81v-0.255l6.557-6.555H-237.44z"/>
					<path id="Path_7" class="st0" d="M-237.185-34.996l-7.065,7.064v-0.254l6.81-6.81H-237.185z"/>
					<path id="Path_8" class="st0" d="M-236.931-34.996l-7.319,7.319v-0.255l7.065-7.064H-236.931z"/>
					<path id="Path_9" class="st0" d="M-236.676-34.996l-7.574,7.572v-0.253l7.319-7.319H-236.676z"/>
					<path id="Path_10" class="st0" d="M-236.423-34.996l-7.827,7.827v-0.255l7.574-7.572H-236.423z"/>
					<path id="Path_11" class="st0" d="M-236.168-34.996l-8.082,8.08v-0.253l7.827-7.827H-236.168z"/>
					<path id="Path_12" class="st0" d="M-235.914-34.996l-8.336,8.334v-0.254l8.082-8.08H-235.914z"/>
					<path id="Path_13" class="st0" d="M-235.659-34.996l-8.591,8.589v-0.255l8.336-8.334H-235.659z"/>
					<path id="Path_14" class="st0" d="M-235.406-34.996l-8.844,8.842v-0.253l8.591-8.589H-235.406z"/>
					<path id="Path_15" class="st0" d="M-235.15-34.996l-9.1,9.097v-0.255l8.844-8.842H-235.15z"/>
					<path id="Path_16" class="st0" d="M-234.898-34.996l-9.352,9.35v-0.253l9.1-9.097H-234.898z"/>
					<path id="Path_17" class="st0" d="M-234.644-34.996l-9.606,9.606v-0.256l9.352-9.35H-234.644z"/>
					<path id="Path_18" class="st0" d="M-234.389-34.996l-9.861,9.859v-0.253l9.606-9.606H-234.389z"/>
					<path id="Path_19" class="st0" d="M-234.136-34.996l-10.114,10.114v-0.255l9.861-9.859H-234.136z"/>
					<path id="Path_20" class="st0" d="M-233.881-34.996l-10.369,10.367v-0.253l10.114-10.114H-233.881z"/>
					<path id="Path_21" class="st0" d="M-233.628-34.996l-10.622,10.621v-0.253l10.369-10.368H-233.628z"/>
					<path id="Path_22" class="st0" d="M-233.372-34.996l-10.878,10.88v-0.255l10.622-10.625H-233.372z"/>
					<path id="Path_23" class="st0" d="M-233.119-34.996l-11.131,11.129v-0.249l10.878-10.88H-233.119z"/>
					<path id="Path_24" class="st0" d="M-232.866-34.996l-11.384,11.38v-0.255l11.131-11.125H-232.866z"/>
					<path id="Path_25" class="st0" d="M-232.611-34.996l-11.639,11.639v-0.259l11.384-11.38H-232.611z"/>
					<path id="Path_26" class="st0" d="M-232.358-34.996l-11.767,11.766l-0.125-0.127l11.639-11.639H-232.358z"/>
					<path id="Path_27" class="st0" d="M-232.102-34.996l-11.893,11.892l-0.13-0.126l11.768-11.766H-232.102z"/>
					<path id="Path_28" class="st0" d="M-231.848-34.996l-12.022,12.021l-0.127-0.128l11.894-11.893H-231.848z"/>
					<path id="Path_29" class="st0" d="M-231.596-34.996l-12.147,12.148l-0.127-0.127l12.023-12.021H-231.596z"/>
					<path id="Path_30" class="st0" d="M-231.34-34.996l-12.276,12.274l-0.127-0.127l12.148-12.147H-231.34z"/>
					<path id="Path_31" class="st0" d="M-231.086-34.996l-12.4,12.4l-0.131-0.126l12.276-12.274H-231.086z"/>
					<path id="Path_32" class="st0" d="M-230.832-34.996l-12.529,12.529l-0.127-0.128l12.403-12.401H-230.832z"/>
					<path id="Path_33" class="st0" d="M-230.577-34.996l-12.655,12.656l-0.127-0.127l12.527-12.529H-230.577z"/>
					<path id="Path_34" class="st0" d="M-230.324-34.996l-12.784,12.78l-0.127-0.127l12.658-12.653H-230.324z"/>
					<path id="Path_35" class="st0" d="M-230.07-34.996l-12.911,12.909l-0.127-0.129l12.785-12.78H-230.07z"/>
					<path id="Path_36" class="st0" d="M-229.816-34.996l-13.038,13.036l-0.128-0.127l12.911-12.909H-229.816z"/>
					<path id="Path_37" class="st0" d="M-229.562-34.996l-13.164,13.164l-0.127-0.128l13.038-13.036H-229.562z"/>
					<path id="Path_38" class="st0" d="M-229.307-34.996L-242.6-21.705l-0.127-0.127l13.164-13.164H-229.307z"/>
					<path id="Path_39" class="st0" d="M-229.054-34.996l-13.419,13.418l-0.127-0.127l13.293-13.291H-229.054z"/>
					<path id="Path_40" class="st0" d="M-228.798-34.996l-13.547,13.544l-0.128-0.127l13.42-13.417H-228.798z"/>
					<path id="Path_41" class="st0" d="M-228.546-34.996l-13.672,13.673l-0.127-0.128l13.546-13.545H-228.546z"/>
					<path id="Path_42" class="st0" d="M-228.29-34.996l-13.8,13.8l-0.127-0.127l13.672-13.673H-228.29z"/>
					<path id="Path_43" class="st0" d="M-228.037-34.996l-13.927,13.926l-0.128-0.127l13.801-13.799H-228.037z"/>
					<path id="Path_44" class="st0" d="M-227.784-34.996l-14.052,14.053l-0.127-0.127l13.926-13.926H-227.784z"/>
					<path id="Path_45" class="st0" d="M-227.528-34.996l-14.181,14.18l-0.127-0.127l14.053-14.053H-227.528z"/>
					<path id="Path_46" class="st0" d="M-227.276-34.996l-14.307,14.308l-0.127-0.128l14.181-14.18H-227.276z"/>
					<path id="Path_47" class="st0" d="M-227.02-34.996l-14.436,14.434l-0.127-0.127l14.308-14.307H-227.02z"/>
					<path id="Path_48" class="st0" d="M-226.766-34.996l-14.563,14.561l-0.128-0.127l14.436-14.434H-226.766z"/>
					<path id="Path_49" class="st0" d="M-226.512-34.996l-14.689,14.688l-0.127-0.127l14.563-14.561H-226.512z"/>
					<path id="Path_50" class="st0" d="M-226.258-34.996l-14.813,14.816l-0.127-0.128l14.687-14.688H-226.258z"/>
					<path id="Path_51" class="st0" d="M-226.004-34.996l-14.944,14.943l-0.127-0.127l14.816-14.816H-226.004z"/>
					<path id="Path_52" class="st0" d="M-225.75-34.996l-15.07,15.07l-0.128-0.127l14.945-14.943H-225.75z"/>
					<path id="Path_53" class="st0" d="M-225.497-34.996l-15.2,15.2l-0.127-0.128l15.074-15.072H-225.497z"/>
					<path id="Path_54" class="st0" d="M-225.242-34.996l-15.324,15.325l-0.127-0.127l15.2-15.198H-225.242z"/>
					<path id="Path_55" class="st0" d="M-224.986-34.996l-15.453,15.451l-0.127-0.127l15.32-15.324H-224.986z"/>
					<path id="Path_56" class="st0" d="M-224.734-34.996l-15.579,15.58l-0.127-0.127l15.453-15.453H-224.734z"/>
					<path id="Path_57" class="st0" d="M-224.478-34.996l-15.706,15.7l-0.129-0.12l15.58-15.58H-224.478z"/>
					<path id="Path_58" class="st0" d="M-224.225-34.996l-15.833,15.831l-0.127-0.127l15.706-15.704H-224.225z"/>
					<path id="Path_59" class="st0" d="M-223.968-34.996l-15.963,15.96l-0.127-0.128l15.833-15.832H-223.968z"/>
					<path id="Path_60" class="st0" d="M-223.721-34.996l-16.083,16.086l-0.127-0.127l15.96-15.959H-223.721z"/>
					<path id="Path_61" class="st0" d="M-223.464-34.996l-16.111,16.114h-0.2l-0.028-0.028l16.086-16.086H-223.464z"/>
					<path id="Path_62" class="st0" d="M-223.208-34.996l-16.116,16.114h-0.255l16.12-16.114H-223.208z"/>
					<path id="Path_63" class="st0" d="M-222.955-34.996l-16.119,16.114h-0.25l16.116-16.114H-222.955z"/>
					<path id="Path_64" class="st0" d="M-222.702-34.996l-16.114,16.114h-0.255l16.116-16.114H-222.702z"/>
					<path id="Path_65" class="st0" d="M-222.447-34.996l-16.116,16.114h-0.253l16.114-16.114H-222.447z"/>
					<path id="Path_66" class="st0" d="M-222.192-34.996l-16.111,16.114h-0.26l16.116-16.114H-222.192z"/>
					<path id="Path_67" class="st0" d="M-221.938-34.996l-16.116,16.114h-0.253l16.116-16.114H-221.938z"/>
					<path id="Path_68" class="st0" d="M-221.707-34.976l-16.094,16.094h-0.253l16.116-16.114h0.231V-34.976z"/>
					<path id="Path_69" class="st0" d="M-221.707-34.721l-15.839,15.839h-0.255l16.094-16.094V-34.721z"/>
					<path id="Path_70" class="st0" d="M-221.707-34.468l-15.584,15.586h-0.255l15.839-15.839V-34.468z"/>
					<path id="Path_71" class="st0" d="M-221.707-34.212l-15.33,15.33h-0.254l15.584-15.585V-34.212z"/>
					<path id="Path_72" class="st0" d="M-221.707-33.959l-15.075,15.077h-0.255l15.33-15.33V-33.959z"/>
					<path id="Path_73" class="st0" d="M-221.707-33.704l-14.822,14.822h-0.253l15.075-15.077V-33.704z"/>
					<path id="Path_74" class="st0" d="M-221.707-33.451l-14.569,14.569h-0.253l14.822-14.822V-33.451z"/>
					<path id="Path_75" class="st0" d="M-221.707-33.196l-14.314,14.314h-0.255l14.569-14.569V-33.196z"/>
					<path id="Path_76" class="st0" d="M-221.711-32.942l-14.057,14.057h-0.253l14.31-14.31V-32.942z"/>
					<path id="Path_77" class="st0" d="M-221.707-32.692l-13.805,13.81h-0.255l14.06-14.06V-32.692z"/>
					<path id="Path_78" class="st0" d="M-221.707-32.434l-13.552,13.552h-0.253l13.805-13.807V-32.434z"/>
					<path id="Path_79" class="st0" d="M-221.707-32.181l-13.3,13.3h-0.252l13.552-13.553V-32.181z"/>
					<path id="Path_80" class="st0" d="M-221.707-31.921l-13.047,13.039h-0.25l13.3-13.3L-221.707-31.921z"/>
					<path id="Path_81" class="st0" d="M-221.708-31.67l-12.788,12.788h-0.255l13.043-13.043V-31.67z"/>
					<path id="Path_82" class="st0" d="M-221.707-31.417l-12.535,12.535h-0.253l12.788-12.788V-31.417z"/>
					<path id="Path_83" class="st0" d="M-221.707-31.164l-12.282,12.282h-0.253l12.535-12.535V-31.164z"/>
					<path id="Path_84" class="st0" d="M-221.707-30.909l-12.027,12.027h-0.255l12.282-12.282V-30.909z"/>
					<path id="Path_85" class="st0" d="M-221.704-30.656l-11.777,11.777h-0.253l12.03-12.03V-30.656z"/>
					<path id="Path_86" class="st0" d="M-221.71-30.4l-11.515,11.515h-0.255l11.77-11.77V-30.4z"/>
					<path id="Path_87" class="st0" d="M-221.707-30.147l-11.265,11.265h-0.253l11.518-11.518V-30.147z"/>
					<path id="Path_88" class="st0" d="M-221.707-29.894l-11.01,11.012h-0.255l11.265-11.265V-29.894z"/>
					<path id="Path_89" class="st0" d="M-221.707-29.639l-10.757,10.757h-0.253l11.01-11.012V-29.639z"/>
					<path id="Path_90" class="st0" d="M-221.707-29.384l-10.5,10.5h-0.257l10.757-10.755V-29.384z"/>
					<path id="Path_91" class="st0" d="M-221.707-29.13l-10.248,10.248h-0.255l10.5-10.5L-221.707-29.13z"/>
					<path id="Path_92" class="st0" d="M-221.707-28.877l-9.993,9.995h-0.255l10.248-10.248V-28.877z"/>
					<path id="Path_93" class="st0" d="M-221.707-28.622l-9.74,9.74h-0.253l9.993-9.995L-221.707-28.622z"/>
					<path id="Path_94" class="st0" d="M-221.707-28.372l-9.49,9.49h-0.25l9.74-9.74V-28.372z"/>
					<path id="Path_95" class="st0" d="M-221.704-28.113l-9.235,9.235h-0.255l9.49-9.49V-28.113z"/>
					<path id="Path_96" class="st0" d="M-221.707-27.86l-8.978,8.978h-0.253l9.231-9.231V-27.86z"/>
					<path id="Path_97" class="st0" d="M-221.707-27.607l-8.725,8.725h-0.253l8.978-8.978V-27.607z"/>
					<path id="Path_98" class="st0" d="M-221.707-27.352l-8.47,8.47h-0.255l8.725-8.725V-27.352z"/>
					<path id="Path_99" class="st0" d="M-221.707-27.099l-8.215,8.217h-0.255l8.47-8.47V-27.099z"/>
					<path id="Path_100" class="st0" d="M-221.707-26.843l-7.961,7.961h-0.254l8.215-8.216V-26.843z"/>
					<path id="Path_101" class="st0" d="M-221.707-26.59l-7.706,7.708h-0.255l7.961-7.961V-26.59z"/>
					<path id="Path_102" class="st0" d="M-221.707-26.335l-7.453,7.453h-0.253l7.706-7.708V-26.335z"/>
					<path id="Path_103" class="st0" d="M-221.707-26.082l-7.2,7.2h-0.253l7.453-7.453V-26.082z"/>
					<path id="Path_104" class="st0" d="M-221.707-25.827l-6.945,6.945h-0.255l7.2-7.2V-25.827z"/>
					<path id="Path_105" class="st0" d="M-221.712-25.573l-6.687,6.687h-0.253l6.94-6.94V-25.573z"/>
					<path id="Path_106" class="st0" d="M-228.398-18.882l6.691-6.691v6.691L-228.398-18.882z"/>
				</g>
			</g>
		</g>
	</g>
</g>
</svg>
