<?xml version="1.0" encoding="utf-8"?>
<!-- Generator: Adobe Illustrator 18.0.0, SVG Export Plug-In . SVG Version: 6.00 Build 0)  -->
<!DOCTYPE svg PUBLIC "-//W3C//DTD SVG 1.1//EN" "http://www.w3.org/Graphics/SVG/1.1/DTD/svg11.dtd">
<svg version="1.1" id="Слой_1" xmlns="http://www.w3.org/2000/svg" xmlns:xlink="http://www.w3.org/1999/xlink" x="0px" y="0px"
	 width="29px" height="29px" viewBox="0 0 29 29" enable-background="new 0 0 29 29" xml:space="preserve">
<path fill="#B3B4B4" d="M28.2,24.3l-4.6-4.7c-0.5-0.5-1.1-0.7-1.8-0.8c1.3-1.9,2-4.3,2-6.8C23.8,5.4,18.5,0,11.9,0
	C5.3,0,0,5.4,0,12.1c0,6.7,5.3,12.1,11.9,12.1c2.6,0,5.1-0.9,7-2.3c0.1,0.6,0.3,1.2,0.8,1.7l4.6,4.6c0.8,0.8,2.5,1.2,3.9,0
	C29.3,27.2,29.2,25.4,28.2,24.3z M11.9,20.5c-4.6,0-8.3-3.8-8.3-8.4c0-4.6,3.7-8.4,8.3-8.4c4.6,0,8.3,3.8,8.3,8.4
	C20.2,16.7,16.5,20.5,11.9,20.5z"/>
</svg>
